<svg xmlns="http://www.w3.org/2000/svg" viewBox="0 0 64 64">
  <defs>
    <linearGradient id="bg" x1="0%" y1="0%" x2="100%" y2="100%">
      <stop offset="0%" stop-color="#0f172a"/>
      <stop offset="100%" stop-color="#1d4ed8"/>
    </linearGradient>
    <linearGradient id="mast" x1="0%" y1="0%" x2="0%" y2="100%">
      <stop offset="0%" stop-color="#f8fafc"/>
      <stop offset="100%" stop-color="#cbd5e1"/>
    </linearGradient>
  </defs>
  <rect width="64" height="64" rx="16" fill="url(#bg)"/>
  <circle cx="32" cy="22" r="4" fill="#22d3ee"/>
  <path d="M32 26 L22 52 H28 L32 38 L36 52 H42 Z" fill="url(#mast)"/>
  <path d="M18 20a20 20 0 0 1 0 24" fill="none" stroke="#67e8f9" stroke-linecap="round" stroke-width="3"/>
  <path d="M46 20a20 20 0 0 0 0 24" fill="none" stroke="#67e8f9" stroke-linecap="round" stroke-width="3"/>
  <path d="M23 25a12 12 0 0 1 0 14" fill="none" stroke="#bae6fd" stroke-linecap="round" stroke-width="3"/>
  <path d="M41 25a12 12 0 0 0 0 14" fill="none" stroke="#bae6fd" stroke-linecap="round" stroke-width="3"/>
</svg>
